<svg xmlns="http://www.w3.org/2000/svg" width="86" height="19" viewBox="0 0 595.98 120.58"><defs><style>.cls-1{fill:#fff;}</style></defs><title>Asset 2</title><g id="Layer_2" data-name="Layer 2"><g id="Layer_1-2" data-name="Layer 1"><path class="cls-1" d="M42.51,72.39V93.2l2.64.35a235.36,235.36,0,0,0,31.77,2.31c17.71,0,34.89-2.38,56.84-7.9v24.57c-21.65,5.49-40.43,8-58.94,8s-37.29-2.56-58.95-8V69.46l-2.6-.38C8.42,68.38,4.06,67.69,0,67V53.42c4.06-.7,8.42-1.38,13.27-2.09l2.6-.37V8.06C37.53,2.58,56.32,0,74.82,0s37.29,2.58,58.94,8.06V32.45c-21.95-5.52-39.13-7.9-56.84-7.9a237,237,0,0,0-31.77,2.31l-2.64.35V48l3.14-.23C57,47,67.44,46.55,77.53,46.55c23,0,44.64,2.06,72.11,6.86V67c-27.47,4.8-49.16,6.87-72.09,6.87h0c-10.09,0-20.52-.42-31.88-1.25Z"/><path class="cls-1" d="M174.17,101.11V19.47q22.1-.69,44.2-1.24v5.34q-18.83.42-37.67.91V57.37l35-.07v5.27l-35,0V96.16q18.84.48,37.67.91v5.28Q196.27,101.8,174.17,101.11Z"/><path class="cls-1" d="M299.22,103.87Q271.32,68.71,242.86,34a41.55,41.55,0,0,1-3-4.11L239,28.73h-.26c.08,1,.13,2.27.13,3.74v70.36l-6.53-.15V17.9l5-.11q28.35,34.05,56,68.71,1.85,2.32,4,5.62h.33q-.33-4.25-.33-7.29V16.73l6.53-.08v87.28Z"/><path class="cls-1" d="M350.81,21.84v82.49l-6.46,0V21.87c-10.93.06-16.4.1-27.33.19V16.5q30.56-.27,61.12-.34v5.6C367.21,21.77,361.74,21.79,350.81,21.84Z"/><path class="cls-1" d="M444.09,104.16c-4.33-10.88-6.49-16.33-10.82-27.26q-20.53.06-41,.07l-10.83,27.45H374.2q17.85-44.1,35.7-88.2l6.21,0q17.58,44,35.31,87.86Zm-29-73.55c-.48-1.23-.86-2.47-1.19-3.63s-.63-2.05-1-3.08h-.26a55.81,55.81,0,0,1-2.18,6.57q-8,20.45-15.9,40.9l36.49,0Q423,51,415.05,30.61Z"/><path class="cls-1" d="M462.94,99.49V92.83a40.5,40.5,0,0,0,20.59,5.54c7.39-.09,13-1.53,16.82-4.28a13.23,13.23,0,0,0,5.75-11.37q0-6.37-3.86-10.16c-2.58-2.53-8.15-6-16.73-10.37q-14.38-7.42-18.22-12.49a18.75,18.75,0,0,1-3.83-11.64q0-9,7.79-15.12T492,17a59.59,59.59,0,0,1,16.89,2.79v6a48,48,0,0,0-17.75-3.57q-9.63-.13-15.28,4.15a13.23,13.23,0,0,0-5.64,11q0,6.47,3.86,10.3c2.58,2.56,8.14,6.09,16.67,10.41,8.79,4.46,14.72,8.35,17.65,11.76a17.55,17.55,0,0,1,4.39,11.76,19.33,19.33,0,0,1-7.56,15.68c-5,4.11-12.15,6.26-21.35,6.39a54.56,54.56,0,0,1-11.25-1.19A38.31,38.31,0,0,1,462.94,99.49Z"/><path class="cls-1" d="M526.2,102.94V17.64l6.53.14v85Z"/><path class="cls-1" d="M546.1,98.16V91.73a41.27,41.27,0,0,0,20.58,5.12c7.39-.18,13-1.62,16.83-4.28a12.6,12.6,0,0,0,5.74-10.9A12.59,12.59,0,0,0,585.39,72c-2.58-2.4-8.15-5.67-16.73-9.89-9.59-4.74-15.66-8.79-18.21-12a17.74,17.74,0,0,1-3.83-11.26c0-5.76,2.6-10.62,7.79-14.51s12.12-5.69,20.78-5.45a62.72,62.72,0,0,1,16.89,2.88v5.74a50.34,50.34,0,0,0-17.74-3.61q-9.65-.24-15.28,3.82a12.46,12.46,0,0,0-5.64,10.54,13.16,13.16,0,0,0,3.86,9.94c2.57,2.47,8.14,5.89,16.66,10,8.8,4.28,14.72,8,17.65,11.21A16.18,16.18,0,0,1,596,80.57c0,6.06-2.52,11-7.56,15s-12.15,6.12-21.34,6.37a55.83,55.83,0,0,1-11.25-1A39.06,39.06,0,0,1,546.1,98.16Z"/></g></g></svg>