<svg id="Layer_1" data-name="Layer 1" xmlns="http://www.w3.org/2000/svg" viewBox="0 0 604.8 129.6"><defs><style>.cls-1{fill:#002a54;}</style></defs><title>Entasis_Logo</title><path class="cls-1" d="M46.92,76.9V97.71l2.65.35a235.1,235.1,0,0,0,31.76,2.31c17.71,0,34.89-2.38,56.84-7.9V117c-21.65,5.49-40.43,8-58.94,8s-37.29-2.56-58.94-8V74l-2.61-.38c-4.84-.7-9.21-1.39-13.27-2.07V57.93c4.06-.7,8.43-1.38,13.27-2.09l2.61-.36V12.57C41.94,7.09,60.73,4.51,79.23,4.51s37.29,2.58,58.94,8.06V37c-21.95-5.52-39.13-7.9-56.84-7.9a236.74,236.74,0,0,0-31.76,2.31l-2.65.35V52.53l3.14-.23c11.36-.84,21.79-1.24,31.89-1.24,22.94,0,44.63,2.06,72.1,6.86v13.6c-27.47,4.8-49.16,6.87-72.09,6.87h0c-10.1,0-20.53-.42-31.89-1.25Z"/><path d="M178.58,105.62V24q22.1-.69,44.21-1.24v5.34Q204,28.5,185.11,29V61.88l35-.07v5.27l-35,0v33.64q18.84.48,37.68.91v5.28Q200.68,106.31,178.58,105.62Z"/><path d="M303.63,108.38q-27.9-35.16-56.35-69.86a40.15,40.15,0,0,1-3-4.11l-.86-1.17h-.26c.09,1,.13,2.27.13,3.74v70.36l-6.53-.15V22.41l5-.11q28.35,34.05,56,68.71c1.23,1.55,2.58,3.42,4,5.62h.33q-.33-4.25-.33-7.29V21.24l6.53-.08v87.28Z"/><path d="M355.22,26.35v82.49l-6.46,0V26.38c-10.93.06-16.4.1-27.33.19V21q30.57-.27,61.12-.34v5.6C371.62,26.28,366.15,26.3,355.22,26.35Z"/><path d="M448.5,108.67c-4.33-10.88-6.49-16.33-10.82-27.26q-20.52.06-41.05.07L385.8,108.93h-7.19q17.85-44.1,35.71-88.2l6.2,0q17.6,44,35.31,87.86Zm-29-73.55a37.21,37.21,0,0,1-1.18-3.63c-.29-1-.64-2-1-3.08H417A55.81,55.81,0,0,1,414.84,35l-15.9,40.9,36.5,0Q427.43,55.49,419.46,35.12Z"/><path d="M467.35,104V97.35a40.61,40.61,0,0,0,20.59,5.53c7.39-.09,13-1.53,16.83-4.28a13.23,13.23,0,0,0,5.74-11.37q0-6.37-3.86-10.16c-2.58-2.53-8.15-6-16.73-10.37-9.59-4.94-15.66-9.13-18.22-12.49a18.74,18.74,0,0,1-3.82-11.64q0-9,7.78-15.12t20.79-5.93a59.71,59.71,0,0,1,16.9,2.79v6a48.13,48.13,0,0,0-17.76-3.57q-9.63-.14-15.27,4.15a13.21,13.21,0,0,0-5.65,11q0,6.47,3.86,10.3c2.58,2.56,8.15,6.09,16.67,10.41C504,67.07,509.93,71,512.85,74.37a17.5,17.5,0,0,1,4.39,11.76,19.36,19.36,0,0,1-7.56,15.69c-5,4.1-12.15,6.25-21.35,6.38A54.56,54.56,0,0,1,477.08,107,38.45,38.45,0,0,1,467.35,104Z"/><path d="M530.61,107.45V22.15l6.53.14v85Z"/><path d="M550.51,102.67V96.24a41.27,41.27,0,0,0,20.58,5.12c7.39-.18,13-1.62,16.83-4.28a12.56,12.56,0,0,0,5.74-10.9,12.59,12.59,0,0,0-3.86-9.67c-2.57-2.4-8.15-5.67-16.73-9.89-9.59-4.74-15.66-8.79-18.21-12A17.74,17.74,0,0,1,551,43.32c0-5.76,2.6-10.62,7.79-14.51s12.12-5.69,20.79-5.45a62.78,62.78,0,0,1,16.89,2.88V32a50.44,50.44,0,0,0-17.75-3.61q-9.63-.24-15.28,3.82a12.46,12.46,0,0,0-5.64,10.54,13.16,13.16,0,0,0,3.86,9.94c2.57,2.47,8.14,5.89,16.66,10,8.8,4.28,14.73,8,17.65,11.21a16.18,16.18,0,0,1,4.39,11.17c0,6.06-2.52,11-7.56,15s-12.15,6.12-21.34,6.37a55.83,55.83,0,0,1-11.25-1A39.06,39.06,0,0,1,550.51,102.67Z"/></svg>